<mxfile host="Electron" agent="Mozilla/5.0 (Windows NT 10.0; Win64; x64) AppleWebKit/537.36 (KHTML, like Gecko) draw.io/24.7.17 Chrome/128.0.6613.36 Electron/32.0.1 Safari/537.36" version="24.7.17">
  <diagram name="Страница — 1" id="ANoD_qWbYqC1cnO-iqx1">
    <mxGraphModel dx="442" dy="549" grid="1" gridSize="10" guides="1" tooltips="1" connect="1" arrows="1" fold="1" page="1" pageScale="1" pageWidth="827" pageHeight="1169" math="0" shadow="0">
      <root>
        <mxCell id="0" />
        <mxCell id="1" parent="0" />
        <mxCell id="Jt1hHIG5UQf6XJgkdiUQ-14" style="edgeStyle=orthogonalEdgeStyle;rounded=0;orthogonalLoop=1;jettySize=auto;html=1;exitX=0;exitY=0.5;exitDx=0;exitDy=0;entryX=0.5;entryY=0;entryDx=0;entryDy=0;" edge="1" parent="1" source="Jt1hHIG5UQf6XJgkdiUQ-2" target="Jt1hHIG5UQf6XJgkdiUQ-9">
          <mxGeometry relative="1" as="geometry" />
        </mxCell>
        <mxCell id="Jt1hHIG5UQf6XJgkdiUQ-31" style="edgeStyle=orthogonalEdgeStyle;rounded=0;orthogonalLoop=1;jettySize=auto;html=1;exitX=0.5;exitY=1;exitDx=0;exitDy=0;entryX=0.5;entryY=0;entryDx=0;entryDy=0;" edge="1" parent="1" source="Jt1hHIG5UQf6XJgkdiUQ-2" target="Jt1hHIG5UQf6XJgkdiUQ-26">
          <mxGeometry relative="1" as="geometry" />
        </mxCell>
        <mxCell id="Jt1hHIG5UQf6XJgkdiUQ-33" style="edgeStyle=orthogonalEdgeStyle;rounded=0;orthogonalLoop=1;jettySize=auto;html=1;exitX=1;exitY=0.5;exitDx=0;exitDy=0;entryX=0.5;entryY=0;entryDx=0;entryDy=0;" edge="1" parent="1" source="Jt1hHIG5UQf6XJgkdiUQ-2" target="Jt1hHIG5UQf6XJgkdiUQ-32">
          <mxGeometry relative="1" as="geometry" />
        </mxCell>
        <mxCell id="Jt1hHIG5UQf6XJgkdiUQ-2" value="if (n&amp;lt;=0)" style="rhombus;whiteSpace=wrap;html=1;" vertex="1" parent="1">
          <mxGeometry x="155" y="300" width="110" height="80" as="geometry" />
        </mxCell>
        <mxCell id="Jt1hHIG5UQf6XJgkdiUQ-5" style="edgeStyle=orthogonalEdgeStyle;rounded=0;orthogonalLoop=1;jettySize=auto;html=1;entryX=0.5;entryY=0;entryDx=0;entryDy=0;" edge="1" parent="1" source="Jt1hHIG5UQf6XJgkdiUQ-4" target="Jt1hHIG5UQf6XJgkdiUQ-2">
          <mxGeometry relative="1" as="geometry" />
        </mxCell>
        <mxCell id="Jt1hHIG5UQf6XJgkdiUQ-4" value="cin &amp;gt;&amp;gt;n;" style="shape=parallelogram;perimeter=parallelogramPerimeter;whiteSpace=wrap;html=1;fixedSize=1;" vertex="1" parent="1">
          <mxGeometry x="150" y="210" width="120" height="50" as="geometry" />
        </mxCell>
        <mxCell id="Jt1hHIG5UQf6XJgkdiUQ-30" style="edgeStyle=orthogonalEdgeStyle;rounded=0;orthogonalLoop=1;jettySize=auto;html=1;exitX=0.5;exitY=1;exitDx=0;exitDy=0;entryX=0.5;entryY=0;entryDx=0;entryDy=0;" edge="1" parent="1" source="Jt1hHIG5UQf6XJgkdiUQ-6" target="Jt1hHIG5UQf6XJgkdiUQ-28">
          <mxGeometry relative="1" as="geometry" />
        </mxCell>
        <mxCell id="Jt1hHIG5UQf6XJgkdiUQ-6" value="Начало" style="ellipse;whiteSpace=wrap;html=1;" vertex="1" parent="1">
          <mxGeometry x="150" width="120" height="70" as="geometry" />
        </mxCell>
        <mxCell id="Jt1hHIG5UQf6XJgkdiUQ-43" style="edgeStyle=orthogonalEdgeStyle;rounded=0;orthogonalLoop=1;jettySize=auto;html=1;exitX=0.5;exitY=1;exitDx=0;exitDy=0;" edge="1" parent="1" source="Jt1hHIG5UQf6XJgkdiUQ-9">
          <mxGeometry relative="1" as="geometry">
            <mxPoint x="210" y="810" as="targetPoint" />
            <Array as="points">
              <mxPoint x="95" y="810" />
              <mxPoint x="210" y="810" />
            </Array>
          </mxGeometry>
        </mxCell>
        <mxCell id="Jt1hHIG5UQf6XJgkdiUQ-9" value="cout&amp;lt;&amp;lt;&quot;Нельзя посчитать произведение первых натуральных чисел при&amp;nbsp; n=0&quot;&amp;lt;&amp;lt; endl;" style="rounded=0;whiteSpace=wrap;html=1;" vertex="1" parent="1">
          <mxGeometry x="30" y="380" width="130" height="110" as="geometry" />
        </mxCell>
        <mxCell id="Jt1hHIG5UQf6XJgkdiUQ-16" value="True" style="text;html=1;align=center;verticalAlign=middle;resizable=0;points=[];autosize=1;strokeColor=none;fillColor=none;" vertex="1" parent="1">
          <mxGeometry x="105" y="298" width="50" height="30" as="geometry" />
        </mxCell>
        <mxCell id="Jt1hHIG5UQf6XJgkdiUQ-17" value="False" style="text;html=1;align=center;verticalAlign=middle;resizable=0;points=[];autosize=1;strokeColor=none;fillColor=none;" vertex="1" parent="1">
          <mxGeometry x="275" y="298" width="50" height="30" as="geometry" />
        </mxCell>
        <mxCell id="Jt1hHIG5UQf6XJgkdiUQ-26" value="Конец" style="ellipse;whiteSpace=wrap;html=1;" vertex="1" parent="1">
          <mxGeometry x="150" y="880" width="120" height="70" as="geometry" />
        </mxCell>
        <mxCell id="Jt1hHIG5UQf6XJgkdiUQ-29" style="edgeStyle=orthogonalEdgeStyle;rounded=0;orthogonalLoop=1;jettySize=auto;html=1;entryX=0.5;entryY=0;entryDx=0;entryDy=0;" edge="1" parent="1" source="Jt1hHIG5UQf6XJgkdiUQ-28" target="Jt1hHIG5UQf6XJgkdiUQ-4">
          <mxGeometry relative="1" as="geometry" />
        </mxCell>
        <mxCell id="Jt1hHIG5UQf6XJgkdiUQ-28" value="int n;&lt;div&gt;int product=1;&lt;/div&gt;" style="rounded=0;whiteSpace=wrap;html=1;" vertex="1" parent="1">
          <mxGeometry x="150" y="110" width="120" height="60" as="geometry" />
        </mxCell>
        <mxCell id="Jt1hHIG5UQf6XJgkdiUQ-45" style="edgeStyle=orthogonalEdgeStyle;rounded=0;orthogonalLoop=1;jettySize=auto;html=1;exitX=0.5;exitY=1;exitDx=0;exitDy=0;entryX=0.5;entryY=0;entryDx=0;entryDy=0;" edge="1" parent="1" source="Jt1hHIG5UQf6XJgkdiUQ-32" target="Jt1hHIG5UQf6XJgkdiUQ-44">
          <mxGeometry relative="1" as="geometry" />
        </mxCell>
        <mxCell id="Jt1hHIG5UQf6XJgkdiUQ-49" style="edgeStyle=orthogonalEdgeStyle;rounded=0;orthogonalLoop=1;jettySize=auto;html=1;exitX=1;exitY=0.5;exitDx=0;exitDy=0;" edge="1" parent="1" source="Jt1hHIG5UQf6XJgkdiUQ-32">
          <mxGeometry relative="1" as="geometry">
            <mxPoint x="210" y="810" as="targetPoint" />
            <Array as="points">
              <mxPoint x="590" y="465" />
              <mxPoint x="590" y="810" />
              <mxPoint x="250" y="810" />
            </Array>
          </mxGeometry>
        </mxCell>
        <mxCell id="Jt1hHIG5UQf6XJgkdiUQ-32" value="for (int i=1; i&amp;lt;=n; i++)" style="rhombus;whiteSpace=wrap;html=1;" vertex="1" parent="1">
          <mxGeometry x="330" y="400" width="130" height="130" as="geometry" />
        </mxCell>
        <mxCell id="Jt1hHIG5UQf6XJgkdiUQ-47" style="edgeStyle=orthogonalEdgeStyle;rounded=0;orthogonalLoop=1;jettySize=auto;html=1;exitX=0.5;exitY=1;exitDx=0;exitDy=0;entryX=0.5;entryY=0;entryDx=0;entryDy=0;" edge="1" parent="1" source="Jt1hHIG5UQf6XJgkdiUQ-44" target="Jt1hHIG5UQf6XJgkdiUQ-46">
          <mxGeometry relative="1" as="geometry" />
        </mxCell>
        <mxCell id="Jt1hHIG5UQf6XJgkdiUQ-44" value="product*=i;" style="rounded=0;whiteSpace=wrap;html=1;" vertex="1" parent="1">
          <mxGeometry x="335" y="560" width="120" height="60" as="geometry" />
        </mxCell>
        <mxCell id="Jt1hHIG5UQf6XJgkdiUQ-48" style="edgeStyle=orthogonalEdgeStyle;rounded=0;orthogonalLoop=1;jettySize=auto;html=1;exitX=0.5;exitY=1;exitDx=0;exitDy=0;" edge="1" parent="1" source="Jt1hHIG5UQf6XJgkdiUQ-46">
          <mxGeometry relative="1" as="geometry">
            <mxPoint x="395" y="370" as="targetPoint" />
            <Array as="points">
              <mxPoint x="395" y="730" />
              <mxPoint x="270" y="730" />
              <mxPoint x="270" y="370" />
            </Array>
          </mxGeometry>
        </mxCell>
        <mxCell id="Jt1hHIG5UQf6XJgkdiUQ-46" value="cout&amp;lt;&amp;lt;product&amp;lt;&amp;lt;endl;" style="rounded=0;whiteSpace=wrap;html=1;" vertex="1" parent="1">
          <mxGeometry x="335" y="650" width="120" height="60" as="geometry" />
        </mxCell>
      </root>
    </mxGraphModel>
  </diagram>
</mxfile>
